<?xml version="1.0" encoding="utf-8"?><!-- Uploaded to: SVG Repo, www.svgrepo.com, Generator: SVG Repo Mixer Tools -->
<svg width="800px" height="800px" viewBox="0 0 24 24" id="coupon" xmlns="http://www.w3.org/2000/svg" class="icon multi-color"><title style="stroke-width: 2;">coupon</title><path id="tertiary-fill" d="M18,5h2a1,1,0,0,1,1,1V18a1,1,0,0,1-1,1H18a0,0,0,0,1,0,0V5A0,0,0,0,1,18,5Z" style="fill: #b7b7b7; stroke-width: 2;"></path><path id="secondary-stroke" d="M13,17.17V19M13,5V6.67" style="fill: none; stroke: rgb(44, 169, 188); stroke-linecap: round; stroke-linejoin: round; stroke-width: 2; stroke-dasharray: 3.66667, 3.66667;"></path><path id="primary-stroke" d="M21,6V18a1,1,0,0,1-1,1H4a1,1,0,0,1-1-1V15A3,3,0,0,0,3,9V6A1,1,0,0,1,4,5H20A1,1,0,0,1,21,6Zm-8,4.17V14" style="fill: none; stroke: rgb(0, 0, 0); stroke-linecap: round; stroke-linejoin: round; stroke-width: 2;"></path></svg>