<?xml version="1.0" encoding="utf-8"?>
<!-- Generator: Adobe Illustrator 27.5.0, SVG Export Plug-In . SVG Version: 6.00 Build 0)  -->
<svg version="1.1" xmlns="http://www.w3.org/2000/svg" xmlns:xlink="http://www.w3.org/1999/xlink" x="0px" y="0px"
	 viewBox="0 0 500 500" style="enable-background:new 0 0 500 500;" xml:space="preserve">
<g id="Background_Simple">
	<g>
		<path style="fill:#92E3A9;" d="M445.28,114.74c-3.21-5.366-6.759-10.574-10.689-15.6c-31.63-40.447-72.984-57.557-120.232-69.025
			c-48.797-11.844-105.93-15.571-152.776,5.842c-11.027,5.041-21.482,11.792-29.802,20.938
			c-31.339,34.449-42.084,92.174-77.004,137.796c-34.92,45.621-51.933,102.415-20.594,156.416
			c13.263,22.853,30.173,41.706,50.182,58.248c24.637,20.366,45.888,47.836,74.358,63.736
			c29.924,16.711,69.777,22.533,102.892,14.881c37.781-8.731,59.942-43.446,88.783-67.122
			c22.737-18.665,49.935-30.881,72.215-50.133c34.134-29.494,60.013-76.901,55.687-123.889
			C474.102,201.248,468.667,153.83,445.28,114.74z"/>
		<path style="opacity:0.7;fill:#FFFFFF;" d="M445.28,114.74c-3.21-5.366-6.759-10.574-10.689-15.6
			c-31.63-40.447-72.984-57.557-120.232-69.025c-48.797-11.844-105.93-15.571-152.776,5.842
			c-11.027,5.041-21.482,11.792-29.802,20.938c-31.339,34.449-42.084,92.174-77.004,137.796
			c-34.92,45.621-51.933,102.415-20.594,156.416c13.263,22.853,30.173,41.706,50.182,58.248
			c24.637,20.366,45.888,47.836,74.358,63.736c29.924,16.711,69.777,22.533,102.892,14.881
			c37.781-8.731,59.942-43.446,88.783-67.122c22.737-18.665,49.935-30.881,72.215-50.133
			c34.134-29.494,60.013-76.901,55.687-123.889C474.102,201.248,468.667,153.83,445.28,114.74z"/>
	</g>
</g>
<g id="Binder">
	<g>
		<path style="fill:#263238;stroke:#263238;stroke-linecap:round;stroke-linejoin:round;stroke-miterlimit:10;" d="M478.5,355.6
			H244.622c-4.324,0-7.83-3.506-7.83-7.83V45.345c0-4.324,3.505-7.83,7.83-7.83H478.5c4.324,0,7.83,3.506,7.83,7.83V347.77
			C486.33,352.094,482.825,355.6,478.5,355.6z"/>
		
			<rect x="249.036" y="42.781" style="fill:#FFFFFF;stroke:#263238;stroke-linecap:round;stroke-linejoin:round;stroke-miterlimit:10;" width="225.05" height="304.292"/>
		<g>
			<path style="fill:#FFFFFF;stroke:#263238;stroke-linecap:round;stroke-linejoin:round;stroke-miterlimit:10;" d="M406.559,24.584
				h-40.797V22.94h14.656v-7.123c0-2.521-2.043-4.564-4.564-4.564h-28.584c-2.521,0-4.564,2.043-4.564,4.564v7.123h14.656v1.644
				h-40.797c-6.231,0-11.282,5.051-11.282,11.282v13.6H417.84v-13.6C417.84,29.635,412.789,24.584,406.559,24.584z"/>
			
				<line style="fill:none;stroke:#263238;stroke-linecap:round;stroke-linejoin:round;stroke-miterlimit:10;" x1="308.934" y1="41.293" x2="413.307" y2="41.293"/>
		</g>
		<g>
			
				<circle style="fill:#92E3A9;stroke:#263238;stroke-linecap:round;stroke-linejoin:round;stroke-miterlimit:10;" cx="361.561" cy="101.19" r="36.26"/>
			<polygon style="fill:#FFFFFF;stroke:#263238;stroke-linecap:round;stroke-linejoin:round;stroke-miterlimit:10;" points="
				386.943,92.125 370.626,92.125 370.626,75.808 352.496,75.808 352.496,92.125 336.18,92.125 336.18,110.255 352.496,110.255 
				352.496,126.572 370.626,126.572 370.626,110.255 386.943,110.255 			"/>
		</g>
		
			<rect x="260.7" y="152.2" style="fill:none;stroke:#263238;stroke-linecap:round;stroke-linejoin:round;stroke-miterlimit:10;" width="125.373" height="14.75"/>
		<polyline style="fill:none;stroke:#263238;stroke-linecap:round;stroke-linejoin:round;stroke-miterlimit:10;" points="
			353.538,173.095 467.304,173.095 467.304,187.845 260.7,187.845 260.7,173.095 343.13,173.095 		"/>
		<polyline style="fill:none;stroke:#263238;stroke-linecap:round;stroke-linejoin:round;stroke-miterlimit:10;" points="
			450.517,152.2 467.794,152.2 467.794,166.95 389.145,166.95 389.145,152.2 445.313,152.2 		"/>
		
			<rect x="260.7" y="193.991" style="fill:none;stroke:#263238;stroke-linecap:round;stroke-linejoin:round;stroke-miterlimit:10;" width="31.852" height="14.75"/>
		<g>
			
				<rect x="298.189" y="193.991" transform="matrix(-1 -1.224647e-16 1.224647e-16 -1 641.7609 402.7313)" style="fill:none;stroke:#263238;stroke-linecap:round;stroke-linejoin:round;stroke-miterlimit:10;" width="45.383" height="14.75"/>
			
				<rect x="343.572" y="193.991" style="fill:none;stroke:#263238;stroke-linecap:round;stroke-linejoin:round;stroke-miterlimit:10;" width="39.096" height="14.75"/>
		</g>
		
			<rect x="389.145" y="193.991" style="fill:none;stroke:#263238;stroke-linecap:round;stroke-linejoin:round;stroke-miterlimit:10;" width="78.739" height="14.75"/>
		<polyline style="fill:none;stroke:#263238;stroke-linecap:round;stroke-linejoin:round;stroke-miterlimit:10;" points="
			268.858,286.177 260.7,286.177 260.7,271.427 386.073,271.427 386.073,286.177 275.008,286.177 		"/>
		
			<rect x="260.7" y="292.322" style="fill:none;stroke:#263238;stroke-linecap:round;stroke-linejoin:round;stroke-miterlimit:10;" width="206.604" height="14.75"/>
		
			<rect x="389.145" y="271.427" style="fill:none;stroke:#263238;stroke-linecap:round;stroke-linejoin:round;stroke-miterlimit:10;" width="78.648" height="14.75"/>
		
			<rect x="260.7" y="313.218" style="fill:none;stroke:#263238;stroke-linecap:round;stroke-linejoin:round;stroke-miterlimit:10;" width="31.852" height="14.75"/>
		<g>
			
				<rect x="298.189" y="313.218" transform="matrix(-1 -1.224647e-16 1.224647e-16 -1 641.7609 641.1856)" style="fill:none;stroke:#263238;stroke-linecap:round;stroke-linejoin:round;stroke-miterlimit:10;" width="45.383" height="14.75"/>
			
				<rect x="343.572" y="313.218" style="fill:none;stroke:#263238;stroke-linecap:round;stroke-linejoin:round;stroke-miterlimit:10;" width="39.096" height="14.75"/>
		</g>
		<polyline style="fill:none;stroke:#263238;stroke-linecap:round;stroke-linejoin:round;stroke-miterlimit:10;" points="
			430.175,313.218 467.884,313.218 467.884,327.968 389.145,327.968 389.145,313.218 422.606,313.218 		"/>
		
			<line style="fill:none;stroke:#263238;stroke-linecap:round;stroke-linejoin:round;stroke-miterlimit:10;" x1="358.741" y1="224.105" x2="467.196" y2="224.105"/>
		
			<line style="fill:none;stroke:#263238;stroke-linecap:round;stroke-linejoin:round;stroke-miterlimit:10;" x1="261.314" y1="224.105" x2="353.065" y2="224.105"/>
		
			<line style="fill:none;stroke:#263238;stroke-linecap:round;stroke-linejoin:round;stroke-miterlimit:10;" x1="261.314" y1="237.625" x2="467.196" y2="237.625"/>
		
			<line style="fill:none;stroke:#263238;stroke-linecap:round;stroke-linejoin:round;stroke-miterlimit:10;" x1="417.402" y1="251.146" x2="467.196" y2="251.146"/>
		
			<line style="fill:none;stroke:#263238;stroke-linecap:round;stroke-linejoin:round;stroke-miterlimit:10;" x1="261.314" y1="251.146" x2="408.887" y2="251.146"/>
		
			<line style="fill:none;stroke:#263238;stroke-linecap:round;stroke-linejoin:round;stroke-miterlimit:10;" x1="261.314" y1="264.667" x2="467.196" y2="264.667"/>
	</g>
</g>
<g id="Magnifying_Glass">
	<g>
		<g>
			<path style="fill:#92E3A9;stroke:#263238;stroke-linecap:round;stroke-linejoin:round;stroke-miterlimit:10;" d="M32.205,228.059
				c-1.972-1.061-3.662-2.699-4.79-4.826c-3.032-5.717-0.854-12.81,4.864-15.841l111.442-59.084
				c5.718-3.032,12.81-0.855,15.842,4.864c3.031,5.718,0.854,12.811-4.864,15.842L43.257,228.098
				C39.666,230.001,35.534,229.851,32.205,228.059z"/>
		</g>
		<path style="fill:#263238;stroke:#263238;stroke-linecap:round;stroke-linejoin:round;stroke-miterlimit:10;" d="M259.138,50.974
			c-38.419-20.674-86.324-6.289-106.998,32.131c-20.674,38.419-6.289,86.324,32.131,106.998s86.324,6.289,106.998-32.131
			C311.943,119.553,297.557,71.648,259.138,50.974z M189.93,179.586c-32.611-17.548-44.821-58.21-27.273-90.821
			c17.548-32.611,58.21-44.821,90.821-27.273c32.611,17.548,44.821,58.21,27.273,90.821
			C263.203,184.924,222.541,197.134,189.93,179.586z"/>
	</g>
</g>
<g id="Heart">
	<g>
		<path style="fill:none;stroke:#263238;stroke-linecap:round;stroke-linejoin:round;stroke-miterlimit:10;" d="M439.145,400.986
			c0-7.21-5.845-13.055-13.055-13.055c-5.317,0-9.883,3.184-11.918,7.744c-2.036-4.56-6.601-7.744-11.918-7.744
			c-7.21,0-13.054,5.845-13.054,13.055c0,7.509,6.436,14.401,11.152,19.66c8.695,9.694,13.912,15.36,13.912,15.36
			s5.217-5.665,13.912-15.36C432.872,415.41,439.145,408.479,439.145,400.986z"/>
		<polyline style="fill:none;stroke:#263238;stroke-linecap:round;stroke-linejoin:round;stroke-miterlimit:10;" points="
			414.147,411.75 424.77,411.75 430.953,400.695 438.167,422.337 444.523,405.161 448.473,415.123 456.89,393.997 464.275,412.375 
			467.195,405.848 470.287,411.688 495.536,411.688 		"/>
	</g>
</g>
<g id="Check_List">
	<g>
		<g>
			<path style="fill:none;stroke:#263238;stroke-linecap:round;stroke-linejoin:round;stroke-miterlimit:10;" d="M46.463,67.395
				H31.096c-1.222,0-2.213-0.991-2.213-2.213V49.814c0-1.222,0.991-2.213,2.213-2.213h15.367c1.222,0,2.213,0.991,2.213,2.213
				v15.368C48.677,66.404,47.686,67.395,46.463,67.395z"/>
			<path style="fill:none;stroke:#263238;stroke-linecap:round;stroke-linejoin:round;stroke-miterlimit:10;" d="M46.463,96.114
				H31.096c-1.222,0-2.213-0.991-2.213-2.213V78.533c0-1.222,0.991-2.213,2.213-2.213h15.367c1.222,0,2.213,0.991,2.213,2.213
				v15.368C48.677,95.123,47.686,96.114,46.463,96.114z"/>
			<path style="fill:none;stroke:#263238;stroke-linecap:round;stroke-linejoin:round;stroke-miterlimit:10;" d="M46.463,124.833
				H31.096c-1.222,0-2.213-0.991-2.213-2.213v-15.368c0-1.222,0.991-2.213,2.213-2.213h15.367c1.222,0,2.213,0.991,2.213,2.213
				v15.368C48.677,123.842,47.686,124.833,46.463,124.833z"/>
			<path style="fill:none;stroke:#263238;stroke-linecap:round;stroke-linejoin:round;stroke-miterlimit:10;" d="M46.463,153.552
				H31.096c-1.222,0-2.213-0.991-2.213-2.213v-15.368c0-1.222,0.991-2.213,2.213-2.213h15.367c1.222,0,2.213,0.991,2.213,2.213
				v15.368C48.677,152.561,47.686,153.552,46.463,153.552z"/>
			
				<line style="fill:none;stroke:#263238;stroke-linecap:round;stroke-linejoin:round;stroke-miterlimit:10;" x1="59.475" y1="58.839" x2="131.272" y2="58.839"/>
			
				<line style="fill:none;stroke:#263238;stroke-linecap:round;stroke-linejoin:round;stroke-miterlimit:10;" x1="59.475" y1="86.309" x2="131.272" y2="86.309"/>
			
				<line style="fill:none;stroke:#263238;stroke-linecap:round;stroke-linejoin:round;stroke-miterlimit:10;" x1="59.475" y1="113.78" x2="131.272" y2="113.78"/>
			
				<line style="fill:none;stroke:#263238;stroke-linecap:round;stroke-linejoin:round;stroke-miterlimit:10;" x1="59.475" y1="141.25" x2="131.272" y2="141.25"/>
		</g>
		<g>
			<path style="fill:#92E3A9;stroke:#263238;stroke-linecap:round;stroke-linejoin:round;stroke-miterlimit:10;" d="M39.447,62.853
				c-0.769,0-1.499-0.335-2.001-0.918L32.5,56.192c-0.952-1.106-0.827-2.773,0.278-3.725c1.106-0.952,2.774-0.827,3.725,0.278
				l2.902,3.371l16.16-19.562c0.929-1.126,2.594-1.283,3.718-0.354c1.125,0.929,1.283,2.594,0.354,3.718L41.483,61.894
				c-0.496,0.6-1.231,0.951-2.009,0.959C39.465,62.853,39.456,62.853,39.447,62.853z"/>
		</g>
		<g>
			<path style="fill:#92E3A9;stroke:#263238;stroke-linecap:round;stroke-linejoin:round;stroke-miterlimit:10;" d="M39.447,90.389
				c-0.769,0-1.499-0.335-2.001-0.918L32.5,83.728c-0.952-1.106-0.827-2.773,0.278-3.725c1.106-0.952,2.774-0.827,3.725,0.278
				l2.902,3.371l16.16-19.562c0.929-1.126,2.594-1.283,3.718-0.354c1.125,0.929,1.283,2.594,0.354,3.718L41.483,89.43
				c-0.496,0.6-1.231,0.951-2.009,0.959C39.465,90.389,39.456,90.389,39.447,90.389z"/>
		</g>
		<g>
			<path style="fill:#92E3A9;stroke:#263238;stroke-linecap:round;stroke-linejoin:round;stroke-miterlimit:10;" d="M39.447,119.999
				c-0.769,0-1.499-0.335-2.001-0.918l-4.945-5.743c-0.952-1.106-0.827-2.773,0.278-3.725c1.106-0.952,2.774-0.827,3.725,0.278
				l2.902,3.371L55.565,93.7c0.929-1.126,2.594-1.283,3.718-0.354c1.125,0.929,1.283,2.594,0.354,3.718L41.483,119.04
				c-0.496,0.6-1.231,0.951-2.009,0.959C39.465,119.999,39.456,119.999,39.447,119.999z"/>
		</g>
		<g>
			<path style="fill:#92E3A9;stroke:#263238;stroke-linecap:round;stroke-linejoin:round;stroke-miterlimit:10;" d="M39.447,149.709
				c-0.769,0-1.499-0.335-2.001-0.918l-4.945-5.743c-0.952-1.106-0.827-2.773,0.278-3.725c1.106-0.952,2.774-0.827,3.725,0.278
				l2.902,3.371l16.16-19.562c0.929-1.126,2.594-1.283,3.718-0.354c1.125,0.929,1.283,2.594,0.354,3.718L41.483,148.75
				c-0.496,0.6-1.231,0.951-2.009,0.959C39.465,149.709,39.456,149.709,39.447,149.709z"/>
		</g>
	</g>
</g>
<g id="Characters">
	<g>
		<g>
			<polygon style="fill:#FFFFFF;stroke:#263238;stroke-linecap:round;stroke-linejoin:round;stroke-miterlimit:10;" points="
				238.53,468.247 110.969,434.379 110.969,439.366 220.377,468.247 			"/>
			<polygon style="fill:#FFFFFF;stroke:#263238;stroke-linecap:round;stroke-linejoin:round;stroke-miterlimit:10;" points="
				438.64,468.247 191.895,421.356 110.969,434.379 237.41,468.247 			"/>
		</g>
		
			<rect x="100.06" y="381.766" style="fill:#263238;stroke:#263238;stroke-linecap:round;stroke-linejoin:round;stroke-miterlimit:10;" width="69.824" height="86.481"/>
		<polygon style="fill:#92E3A9;stroke:#263238;stroke-linecap:round;stroke-linejoin:round;stroke-miterlimit:10;" points="
			118.261,381.766 160.949,381.766 151.022,240.132 97.743,238.146 		"/>
		<polygon style="fill:#263238;stroke:#263238;stroke-linecap:round;stroke-linejoin:round;stroke-miterlimit:10;" points="
			116.812,255.556 124.906,261.705 130.902,280.348 130.902,356.329 141.247,369.884 148.916,350.8 136.431,279.813 
			135.601,260.783 140.712,249.67 138.571,246.46 131.36,260.046 120.481,248.982 		"/>
		<path style="fill:#FFFFFF;stroke:#263238;stroke-linecap:round;stroke-linejoin:round;stroke-miterlimit:10;" d="M112.353,203.119
			c0,0-1.427,17.836-1.962,19.619c-0.535,1.784-0.357,8.204,4.994,16.409s6.421,12.485,9.275,16.587
			c2.854,4.102,5.631,4.668,6.701,4.311c1.07-0.357,6.141-8.413,7.39-10.732c1.249-2.319,3.032-13.734,3.032-13.734
			s-23.365-23.365-25.149-27.646C114.85,203.654,112.709,202.048,112.353,203.119z"/>
		<polygon style="fill:#263238;stroke:#263238;stroke-linecap:round;stroke-linejoin:round;stroke-miterlimit:10;" points="
			125.134,226.443 138.571,246.46 142.404,233.878 		"/>
		<path style="fill:#92E3A9;stroke:#263238;stroke-linecap:round;stroke-linejoin:round;stroke-miterlimit:10;" d="M138.75,249.314
			c0,0,6.421,11.95,7.313,12.128c0.892,0.178,0.178-16.587,0.178-21.046s-4.102-3.924-4.459-4.816
			C141.425,234.688,138.75,249.314,138.75,249.314z"/>
		<g>
			<path style="fill:#263238;stroke:#263238;stroke-linecap:round;stroke-linejoin:round;stroke-miterlimit:10;" d="
				M162.237,174.138c0,0,5.956-1.191,6.433-7.862c0.476-6.671-4.05-11.674-8.1-9.291s-5.956,1.668-9.291-2.144
				c-3.335-3.812-11.674-7.862-16.915-5.241c-5.241,2.621-4.288,5.241-6.194,5.48c-1.906,0.238-11.197-0.715-18.821,4.05
				s-6.909,15.486-5.479,20.25c1.429,4.765,4.765,14.056,4.765,14.056s4.765,10.721,8.815,9.291c4.05-1.429,2.144-7.862,5.479-9.053
				c3.335-1.191,6.909-4.05,7.624-7.385c0.715-3.335,0-8.815,3.812-9.053c3.812-0.238,17.63,5.003,22.156,2.859
				C161.046,177.95,162.237,174.138,162.237,174.138z"/>
			<path style="fill:#FFFFFF;stroke:#263238;stroke-linecap:round;stroke-linejoin:round;stroke-miterlimit:10;" d="
				M162.237,174.138c0,0,2.621,12.15,1.191,17.63c-1.429,5.479-2.382,7.862-2.144,12.15c0.238,4.288,2.621,8.338,0.238,13.341
				c-2.382,5.003-13.58,18.583-17.391,20.012c-3.812,1.429-9.291-1.43-12.865-4.05c-3.574-2.621-13.341-12.15-15.247-16.439
				c-1.906-4.288-2.621-9.529-2.621-9.529s-4.05-0.953-5.956-5.241c-1.906-4.288-3.812-10.483,0.238-11.912
				c4.05-1.429,7.147,3.335,7.624,5.956c0.477,2.621,1.668,4.288,2.382,2.621c0.715-1.668-1.43-6.432,0.715-7.624
				c2.144-1.191,6.671-0.715,6.909-4.288c0.238-3.574-2.144-12.388,3.097-15.486c5.241-3.097,20.012,5.718,23.824,5.956
				C156.043,177.474,162.237,174.138,162.237,174.138z"/>
			<path style="fill:none;stroke:#263238;stroke-linecap:round;stroke-linejoin:round;stroke-miterlimit:10;" d="M153.553,196.163
				c0,0-1.962,3.389-1.962,5.351c0,1.962,2.675,12.842,2.319,15.517c-0.357,2.675-3.924,2.14-6.599,1.07
				c-2.675-1.07-4.637-3.924-4.637-3.924"/>
			<path style="fill:none;stroke:#263238;stroke-linecap:round;stroke-linejoin:round;stroke-miterlimit:10;" d="M132.686,217.922
				c0,0,4.459,5.529,11.593,5.529"/>
			<path style="fill:none;stroke:#263238;stroke-linecap:round;stroke-linejoin:round;stroke-miterlimit:10;" d="M155.159,193.487
				c0,0,2.854-4.459,6.956-2.14"/>
			<path style="fill:none;stroke:#263238;stroke-linecap:round;stroke-linejoin:round;stroke-miterlimit:10;" d="M144.279,195.628
				c0,0-7.491-5.708-14.269-1.605"/>
			<path style="fill:#263238;" d="M140.89,202.227c0,1.872-0.918,3.389-2.051,3.389s-2.051-1.517-2.051-3.389
				c0-1.872,0.918-3.389,2.051-3.389S140.89,200.355,140.89,202.227z"/>
			<path style="fill:#263238;" d="M158.904,200.265c0,1.872-0.918,3.389-2.051,3.389s-2.051-1.517-2.051-3.389
				s0.918-3.389,2.051-3.389S158.904,198.393,158.904,200.265z"/>
		</g>
		<polygon style="fill:#92E3A9;stroke:#263238;stroke-linecap:round;stroke-linejoin:round;stroke-miterlimit:10;" points="
			110.569,221.49 101.829,228.267 110.391,263.047 123.589,248.065 		"/>
		<path style="fill:#FFFFFF;stroke:#263238;stroke-linecap:round;stroke-linejoin:round;stroke-miterlimit:10;" d="M48.712,468.247
			h71.427c0.722-10.211,7.654-108.036,8.729-117.716c1.135-10.214-0.284-24.684-3.121-36.884
			c-2.837-12.2-23.919-85.379-23.919-85.379c-2.603,0.617-8.574,3.226-8.574,3.226s-0.531,1.119-1.26,1.44
			c-16.636,7.313-44.397,20.147-46.257,22.834c-2.554,3.688,16.456,123.704,16.456,123.704L48.712,468.247z"/>
		<path style="fill:#FFFFFF;stroke:#263238;stroke-linecap:round;stroke-linejoin:round;stroke-miterlimit:10;" d="M208.63,352.534
			c0,0-0.222-2.712-1.109-2.921c-0.887-0.209-7.321-2.921-7.321-2.921l-19.967-15.649l2.884,38.6c0,0,19.967,2.712,20.854,2.504
			c0.887-0.209,3.55-7.094,4.659-10.85C209.74,357.542,208.63,352.534,208.63,352.534z"/>
		<path style="fill:#FFFFFF;stroke:#263238;stroke-linecap:round;stroke-linejoin:round;stroke-miterlimit:10;" d="M157.77,468.247
			h42.716l-17.141-93.032l-3.972-93.345c0,0,3.121-24.968,1.419-27.521c-1.146-1.719-26.514-12.743-26.514-12.743l-0.909-1.653
			c0,0-6.528-3.552-7.813-3.15c0,0,3.743,85.923,5.445,100.11C152.615,350.377,157.298,457.404,157.77,468.247z"/>
		
			<line style="fill:none;stroke:#263238;stroke-linecap:round;stroke-linejoin:round;stroke-miterlimit:10;" x1="159.031" y1="310.949" x2="154.02" y2="329.253"/>
		<polyline style="fill:none;stroke:#263238;stroke-linecap:round;stroke-linejoin:round;stroke-miterlimit:10;" points="
			158.042,255.188 161.452,267.49 156.327,272.615 166.578,283.379 160.723,304.77 		"/>
		
			<line style="fill:none;stroke:#263238;stroke-linecap:round;stroke-linejoin:round;stroke-miterlimit:10;" x1="154.277" y1="241.605" x2="156.483" y2="249.563"/>
		
			<line style="fill:none;stroke:#263238;stroke-linecap:round;stroke-linejoin:round;stroke-miterlimit:10;" x1="118.363" y1="327.302" x2="124.035" y2="337.71"/>
		<polyline style="fill:none;stroke:#263238;stroke-linecap:round;stroke-linejoin:round;stroke-miterlimit:10;" points="
			92.895,234.913 94.051,269.796 109.427,276.459 97.638,289.273 116.077,323.107 		"/>
		<g>
			<path style="fill:#878787;stroke:#263238;stroke-linecap:round;stroke-linejoin:round;stroke-miterlimit:10;" d="
				M364.872,468.247c1.489-2.001,7.138-10.39,7.906-23.454c0.886-15.066-0.881-29.717-0.881-29.717l-88.923-8.391l-4.431,10.339
				c0,0-32.495,9.158-50.811,18.906c-16.786,8.934-31.081,29.021-33.353,32.317H364.872z"/>
			<path style="fill:none;stroke:#263238;stroke-linecap:round;stroke-linejoin:round;stroke-miterlimit:10;" d="M266.588,461.415
				c24.98-18.496,55.98-39.496,88.465-30.506"/>
			<path style="fill:none;stroke:#263238;stroke-linecap:round;stroke-linejoin:round;stroke-miterlimit:10;" d="M365.19,421.793
				c1.176,2.776,2.598,5.767,3.112,8.75c0.808,4.692-3.644,1.242-5.724,3.266c-1.295,1.26,0.713,2.538,1.71,3.501
				c1.645,1.589,3.019,2.922,2.578,5.41c-0.418,2.359-2.34,3.836-4.04,5.311c-1.938,1.681-2.996,3.182-4.284,5.35
				c-1.993,3.354-5.592,5.79-8.689,8.045"/>
		</g>
		<g>
			<path style="fill:#92E3A9;stroke:#263238;stroke-linecap:round;stroke-linejoin:round;stroke-miterlimit:10;" d="
				M312.809,284.098c0,0-34.742,10.82-37.543,13.621s-12.884,24.368-12.884,24.368s-3.921-0.84-4.481,0.56
				c-0.56,1.4-2.241,5.602-2.241,5.602s-5.042,2.801-3.641,3.641c1.4,0.84,23.807,24.368,23.807,24.368l1.401,3.641l3.921,40.613
				c0,0-3.361,4.201-1.12,6.722c2.241,2.521,29.409,16.525,44.814,15.965c15.405-0.56,45.374-4.201,47.055-8.122
				c1.681-3.921,1.12-6.722,0.84-7.562c-0.28-0.84,7.842-84.587,7.002-94.67c-0.84-10.083-31.09-26.608-31.09-26.608
				S325.704,280.56,312.809,284.098z"/>
			
				<line style="fill:none;stroke:#263238;stroke-linecap:round;stroke-linejoin:round;stroke-miterlimit:10;" x1="274.676" y1="327.768" x2="274.431" y2="321.694"/>
			
				<line style="fill:none;stroke:#263238;stroke-linecap:round;stroke-linejoin:round;stroke-miterlimit:10;" x1="275.826" y1="356.257" x2="274.897" y2="333.239"/>
			
				<line style="fill:none;stroke:#263238;stroke-linecap:round;stroke-linejoin:round;stroke-miterlimit:10;" x1="270.723" y1="340.991" x2="273.993" y2="344.915"/>
			
				<line style="fill:none;stroke:#263238;stroke-linecap:round;stroke-linejoin:round;stroke-miterlimit:10;" x1="260.849" y1="329.143" x2="268.564" y2="338.4"/>
			<path style="fill:none;stroke:#263238;stroke-linecap:round;stroke-linejoin:round;stroke-miterlimit:10;" d="M342.831,381.66
				c1.916,2.076,3.449,3.651,4.13,4.162"/>
			<path style="fill:none;stroke:#263238;stroke-linecap:round;stroke-linejoin:round;stroke-miterlimit:10;" d="M327.885,364.702
				c0,0,6.833,7.972,12.401,14.161"/>
			<path style="fill:none;stroke:#263238;stroke-linecap:round;stroke-linejoin:round;stroke-miterlimit:10;" d="M286.554,402.4
				c0,0,3.179-1.135,13.626-8.857"/>
			<path style="fill:none;stroke:#263238;stroke-linecap:round;stroke-linejoin:round;stroke-miterlimit:10;" d="M311.307,309.972
				c0,0-3.634,14.08-3.634,18.849c0,4.769,0,4.769,0,4.769s3.179,2.044,4.088,1.363c0.908-0.681,2.044-12.49,2.498-16.578"/>
		</g>
		<g>
			<path style="fill:#92E3A9;stroke:#263238;stroke-linecap:round;stroke-linejoin:round;stroke-miterlimit:10;" d="
				M312.587,287.842c0,0-4.61-0.984-6.22,2.236c-1.61,3.221-10.582,21.164-8.972,20.934c1.61-0.23,17.254-7.822,17.254-7.822
				s11.502,21.854,13.343,20.014c1.84-1.84,21.708-32.205,21.13-38.686c-0.578-6.481-10.792-9.816-14.257-9.474
				C331.401,275.387,317.49,280.546,312.587,287.842z"/>
			<path style="fill:#FFFFFF;stroke:#263238;stroke-linecap:round;stroke-linejoin:round;stroke-miterlimit:10;" d="
				M282.923,235.231c0,0-1.993,14.878,0.023,18.349c2.017,3.472,4.34,5.327,3.688,8.396c-0.651,3.069-4.649,7.954-3.215,9.676
				c1.434,1.722,5.469,2.832,5.469,2.832s8.181,14.374,9.797,14.68c1.616,0.306,11.026-3.449,11.026-3.449
				s2.955,22.706,4.124,22.372c1.169-0.334,24.797-28.348,25.667-29.753c0.871-1.405-5.44-16.01-5.44-16.01
				s3.741-9.628,1.163-19.143c-2.579-9.515-19.971-14.176-33.09-14.524C289.016,228.31,285.286,231.416,282.923,235.231z"/>
			<path style="fill:#263238;stroke:#263238;stroke-linecap:round;stroke-linejoin:round;stroke-miterlimit:10;" d="
				M287.478,219.853c0,0-13.429,6.814-12.509,10.728c0.92,3.915,13.885,8.313,17.771,9.465c3.886,1.152,6.692,1.009,6.692,1.009
				s-1.08,3.094,0.358,4.822c1.439,1.727,8.448,1.888,8.448,1.888s0.848,4.706,1.942,4.966c1.094,0.259,3.123-0.992,3.123-0.992
				s1.973-5.886,3.629-6.533c1.655-0.647,4.779-1.639,6.95,4.305s-0.507,9.93-2.479,11.427c-1.972,1.496-2.966,2.762-2.966,2.762
				s1.59,3.973,8.901,4.321c7.311,0.347,8.341-3.467,8.341-3.467s5.375-7.863,5.473-19.506c0.059-7.047-1.074-15.609-7.131-22.707
				C327.964,215.245,301.604,211.8,287.478,219.853z"/>
			<path style="fill:#263238;stroke:#263238;stroke-linecap:round;stroke-linejoin:round;stroke-miterlimit:10;" d="
				M309.711,285.716c0,0,6.915-4.884,7.9-5.802c0.985-0.918,3.233-5.22,3.233-5.22s-2.215,8.47-3.935,13.63
				c-1.498,4.493-1.926,8.559-1.926,8.559L309.711,285.716z"/>
			<g>
				<path style="fill:#263238;stroke:#263238;stroke-linecap:round;stroke-linejoin:round;stroke-miterlimit:10;" d="
					M292.834,257.698c0.337,1.484,0.101,2.803-0.529,2.946c-0.629,0.143-1.413-0.944-1.751-2.427
					c-0.337-1.484-0.101-2.803,0.529-2.946C291.713,255.127,292.497,256.214,292.834,257.698z"/>
				<path style="fill:none;stroke:#263238;stroke-linecap:round;stroke-linejoin:round;stroke-miterlimit:10;" d="M286.312,253.304
					c0,0,1.808-4.714,6.876-2.13"/>
				<path style="fill:none;stroke:#263238;stroke-linecap:round;stroke-linejoin:round;stroke-miterlimit:10;" d="M294.118,274.113
					c0,0,5.393-0.41,7.039-5.085"/>
			</g>
		</g>
		<g>
			<path style="fill:#FFFFFF;stroke:#263238;stroke-linecap:round;stroke-linejoin:round;stroke-miterlimit:10;" d="
				M278.346,429.361c0,0-4.201,1.484-5.944,1.658c-1.743,0.174-4.357-1.046-4.183,1.394c0.174,2.44,3.486,2.614,4.531,2.44
				C273.797,434.678,278.346,429.361,278.346,429.361z"/>
			<g>
				<path style="fill:#92E3A9;stroke:#263238;stroke-linecap:round;stroke-linejoin:round;stroke-miterlimit:10;" d="
					M348.649,341.133l0.84,48.736c0,0-31.93,24.648-36.131,27.729c-4.201,3.081-17.646,8.122-17.646,8.122
					s-15.965,3.361-17.366,3.641c-1.4,0.28-7.842,4.201-7.562,7.282c0.28,3.081,3.361,3.361,3.361,3.361s0.84,6.442,2.801,8.403
					c1.961,1.961,3.361,1.681,4.201,1.681c0.84,0,22.127-12.324,22.127-12.324s45.654-13.164,52.657-16.245
					s13.724-4.762,15.685-11.484c1.961-6.722,8.122-45.654,10.083-64.981c1.961-19.326,3.641-28.569,0-33.891
					c-3.641-5.322-17.085-5.322-17.926-5.042"/>
				<path style="fill:#FFFFFF;stroke:#263238;stroke-linecap:round;stroke-linejoin:round;stroke-miterlimit:10;" d="
					M349.201,373.162l0.288,16.706c0,0-31.93,24.648-36.132,27.729c-4.201,3.081-17.646,8.122-17.646,8.122
					s-15.965,3.361-17.366,3.641c-0.59,0.118-2.077,0.887-3.578,1.963l-0.235-0.053c0,0-0.208,0.241-0.542,0.637
					c-3.231,2.564-5.735,6.862-6.581,10.875c-0.538,2.552-1.858,6.941-0.999,9.52c0.417,1.249,1.458,1.874,2.707,1.249
					c1.249-0.625,1.249-0.625,1.249-0.625s-0.208,0.833,0.833,1.666c1.041,0.833,2.915,0.625,2.915,0.625l2.082-0.625l27.074-16.831
					c0,0,45.654-13.164,52.657-16.245s13.724-4.762,15.685-11.484c1.245-4.27,4.185-21.535,6.667-38.518
					C365.885,375.975,355.579,374.85,349.201,373.162z"/>
				<path style="fill:#FFFFFF;stroke:#263238;stroke-linecap:round;stroke-linejoin:round;stroke-miterlimit:10;" d="
					M270.369,452.928c0,0,2.707-10.412,2.707-11.037c0-0.625,5.414-7.497,5.414-7.497"/>
				<polyline style="fill:#FFFFFF;stroke:#263238;stroke-linecap:round;stroke-linejoin:round;stroke-miterlimit:10;" points="
					274.118,455.219 279.948,442.516 284.946,435.852 				"/>
				
					<line style="fill:#FFFFFF;stroke:#263238;stroke-linecap:round;stroke-linejoin:round;stroke-miterlimit:10;" x1="283.072" y1="450.221" x2="289.111" y2="441.058"/>
			</g>
		</g>
		<g>
			<path style="fill:#FFFFFF;stroke:#263238;stroke-linecap:round;stroke-linejoin:round;stroke-miterlimit:10;" d="
				M239.518,349.751c0,0-10.493,4.997-18.737,9.993c-8.245,4.997-28.98,17.988-28.98,17.988s-17.244,0.202-18.737,2.249
				c-1.494,2.046-8.244,5.246-8.244,5.246s-5.746-3.747-6.995-0.999c-1.249,2.748,9.244,12.492,13.241,14.74
				s11.742,0.999,12.742,0.5c0.999-0.5,15.24-13.741,15.24-13.741s37.959-6.762,48.967-9.993
				c11.008-3.232,10.243-5.996,10.243-5.996L239.518,349.751z"/>
			<path style="fill:#FFFFFF;stroke:#263238;stroke-linecap:round;stroke-linejoin:round;stroke-miterlimit:10;" d="
				M189.473,381.112c0,0-5.861,3.37-7.033,5.714c-1.172,2.344-5.275,8.645-5.275,8.645s-5.568-1.905-6.3-2.344
				c-0.733-0.44-5.275-5.421-7.033-4.542c-1.758,0.879-1.319,3.077-0.879,3.663"/>
		</g>
		<path style="fill:#263238;stroke:#263238;stroke-linecap:round;stroke-linejoin:round;stroke-miterlimit:10;" d="M250.898,329.089
			c0,0-15.405,17.085-14.845,18.766c0.56,1.68,21.007,24.928,22.967,24.648s16.805-16.245,16.805-16.245
			S255.099,330.209,250.898,329.089z"/>
		<polygon style="fill:#737373;stroke:#263238;stroke-linecap:round;stroke-linejoin:round;stroke-miterlimit:10;" points="
			263.252,368.739 251.76,357.496 261.003,348.752 272.496,360.744 		"/>
		<path style="fill:#FFFFFF;stroke:#263238;stroke-linecap:round;stroke-linejoin:round;stroke-miterlimit:10;" d="M238.961,356.14
			c0.531,2.203-1.876,4.673-5.377,5.517c-3.501,0.844-6.769-0.257-7.3-2.46c-0.531-2.203,1.876-4.673,5.377-5.517
			C235.161,352.836,238.43,353.938,238.961,356.14z"/>
		<path style="fill:#FFFFFF;stroke:#263238;stroke-linecap:round;stroke-linejoin:round;stroke-miterlimit:10;" d="M236.149,355.5
			c0.295,1.225-1.044,2.599-2.991,3.069c-1.947,0.47-3.766-0.143-4.061-1.368c-0.295-1.225,1.044-2.599,2.991-3.069
			C234.035,353.662,235.853,354.274,236.149,355.5z"/>
		<g>
			<path style="fill:none;stroke:#263238;stroke-width:2;stroke-linecap:round;stroke-linejoin:round;stroke-miterlimit:10;" d="
				M190.859,371.746c0,0,9.923,9.511,25.082,24.417c15.16,14.907,40.931,4.548,47.247-9.096c6.316-13.643,9.096-28.803,9.096-28.803
				"/>
			
				<ellipse style="fill:#263238;stroke:#263238;stroke-linecap:round;stroke-linejoin:round;stroke-miterlimit:10;" cx="184.416" cy="372.041" rx="7.384" ry="5.691"/>
			<path style="fill:#FFFFFF;stroke:#263238;stroke-linecap:round;stroke-linejoin:round;stroke-miterlimit:10;" d="
				M150.823,356.663l6.349,1.369c0,0,8.346-5.008,9.598-5.008c1.252,0,6.051,2.921,7.929,3.964
				c1.878,1.043,10.015,8.137,11.267,8.972s0.626,1.878-0.835,2.921l5.727,2.864c1.661,0.83,2.096,3.056,0.796,4.383
				c-0.018,0.019-0.037,0.037-0.056,0.056c-1.878,1.878-4.799,2.086-4.799,2.086s-6.677,7.929-10.015,9.598
				c-3.338,1.669-30.672-8.137-30.672-8.137S145.935,364.475,150.823,356.663z"/>
			<polyline style="fill:none;stroke:#263238;stroke-linecap:round;stroke-linejoin:round;stroke-miterlimit:10;" points="
				185.131,368.882 174.073,364.709 169.065,360.953 			"/>
			<path style="fill:none;stroke:#263238;stroke-linecap:round;stroke-linejoin:round;stroke-miterlimit:10;" d="M186.8,378.271
				c0,0-10.85-1.669-11.893-1.669"/>
			<path style="fill:none;stroke:#263238;stroke-linecap:round;stroke-linejoin:round;stroke-miterlimit:10;" d="M182.419,382.862
				c0,0-6.259,0.209-10.85-0.835"/>
			<path style="fill:none;stroke:#263238;stroke-linecap:round;stroke-linejoin:round;stroke-miterlimit:10;" d="M169.691,385.783
				c0,0,5.425,1.252,8.555,1.252"/>
		</g>
		<path style="fill:#FFFFFF;stroke:#263238;stroke-linecap:round;stroke-linejoin:round;stroke-miterlimit:10;" d="M59.458,250.245
			c0,0-14.287,3.484-16.377,10.454c-2.091,6.969,9.408,78.75,10.105,86.416c0.697,7.666,3.136,17.771,5.227,18.468
			c2.091,0.697,82.235,19.165,84.326,19.165c2.091,0,4.181-1.045,4.181-1.045s-1.045-9.06,0.697-15.332
			c1.742-6.272,3.833-11.499,3.833-11.499l-62.722-27.179l-5.924-57.495"/>
		<g>
			<path style="fill:#FFFFFF;stroke:#263238;stroke-linecap:round;stroke-linejoin:round;stroke-miterlimit:10;" d="
				M206.205,353.025c0,0,5.634-3.756,6.885-4.173s9.598-4.173,12.102-4.173s8.555,7.094,9.181,7.511
				c0.626,0.417,2.504,1.878-0.209,3.13c-2.713,1.252-6.414,0.346-6.414,0.346l-23.685,14.431
				C204.065,370.096,203.701,356.154,206.205,353.025z"/>
			<path style="fill:#FFFFFF;stroke:#263238;stroke-linecap:round;stroke-linejoin:round;stroke-miterlimit:10;" d="M227.75,355.665
				c0,0-3.549-0.916-6.987-4.231"/>
			<path style="fill:#FFFFFF;stroke:#263238;stroke-linecap:round;stroke-linejoin:round;stroke-miterlimit:10;" d="
				M217.571,354.013c0,0,2.333,1.228,5.279-0.737"/>
		</g>
		<g>
			
				<line style="fill:#FFFFFF;stroke:#263238;stroke-linecap:round;stroke-linejoin:round;stroke-miterlimit:10;" x1="98.562" y1="435.491" x2="108.657" y2="436.83"/>
			<polyline style="fill:#FFFFFF;stroke:#263238;stroke-linecap:round;stroke-linejoin:round;stroke-miterlimit:10;" points="
				109.846,428.108 70.596,423.35 69.803,431.676 93.489,434.818 			"/>
		</g>
		<g>
			<polyline style="fill:#FFFFFF;stroke:#263238;stroke-linecap:round;stroke-linejoin:round;stroke-miterlimit:10;" points="
				181.97,420.462 168.126,425.333 170.109,433.659 189.139,425.333 			"/>
			
				<line style="fill:#FFFFFF;stroke:#263238;stroke-linecap:round;stroke-linejoin:round;stroke-miterlimit:10;" x1="189.535" y1="417.8" x2="184.676" y2="419.51"/>
		</g>
		<path style="fill:#FFFFFF;stroke:#263238;stroke-linecap:round;stroke-linejoin:round;stroke-miterlimit:10;" d="M84.473,328.596
			c0,0-11.894,1.189-16.651,11.497"/>
		<path style="fill:#FFFFFF;stroke:#263238;stroke-linecap:round;stroke-linejoin:round;stroke-miterlimit:10;" d="M69.01,331.767
			c0,0-5.55,0.396-6.74,13.083"/>
		<path style="fill:#FFFFFF;stroke:#263238;stroke-linecap:round;stroke-linejoin:round;stroke-miterlimit:10;" d="M179.372,281.87
			c0,0-2.127-18.294-4.902-25.827"/>
		<g>
			<g>
				<path style="fill:#263238;stroke:#263238;stroke-linecap:round;stroke-linejoin:round;stroke-miterlimit:10;" d="
					M105.609,204.294c-0.558,0-1.113-0.232-1.508-0.686c-0.726-0.832-0.64-2.096,0.193-2.822c2.289-1.996,5.94-3.831,6.094-3.908
					c0.988-0.495,2.189-0.093,2.683,0.894c0.494,0.988,0.094,2.189-0.893,2.684c-0.033,0.017-3.354,1.688-5.255,3.345
					C106.544,204.132,106.075,204.294,105.609,204.294z"/>
			</g>
			<g>
				<path style="fill:#FFFFFF;stroke:#263238;stroke-linecap:round;stroke-linejoin:round;stroke-miterlimit:10;" d="
					M142.28,284.341c-0.759,0-1.411-0.575-1.49-1.347l-2.212-21.565c-0.085-0.824,0.515-1.561,1.339-1.646
					c0.817-0.084,1.561,0.516,1.645,1.339l2.212,21.565c0.084,0.824-0.515,1.561-1.339,1.646
					C142.383,284.338,142.331,284.341,142.28,284.341z"/>
			</g>
			<path style="fill:#FFFFFF;stroke:#263238;stroke-linecap:round;stroke-linejoin:round;stroke-miterlimit:10;" d="
				M152.939,229.098c-2.556,9.127-10.694,25.742-13.324,31.002c-17.828-14.893-33.288-52.813-34.044-55.521
				c0.06-0.129,0.279-0.507,1.021-1.154c0.624-0.544,0.689-1.492,0.145-2.116c-0.544-0.624-1.492-0.689-2.116-0.145
				c-0.576,0.502-2.329,2.03-2.03,3.822c0.515,3.089,17.68,44.234,36.624,58.632c0.264,0.2,0.583,0.306,0.908,0.306
				c0.111,0,0.223-0.013,0.333-0.037c0.433-0.099,0.8-0.385,1.002-0.779c0.525-1.026,13.906-29.226,16.228-39.927
				C156.263,225.098,154.613,227.157,152.939,229.098z"/>
			<g>
				<path style="fill:#263238;" d="M215.406,360.335c-22.737,0-48.539-11.667-59.722-28.56
					c-13.069-19.743-14.802-49.5-14.869-50.757c-0.044-0.827,0.59-1.533,1.417-1.578c0.818-0.034,1.534,0.591,1.579,1.418
					c0.016,0.3,1.762,30.207,14.375,49.261c12.738,19.242,47.016,31.697,70.537,25.63c0.8-0.213,1.62,0.275,1.827,1.077
					c0.206,0.803-0.276,1.62-1.078,1.827C225.043,359.795,220.294,360.335,215.406,360.335z"/>
			</g>
		</g>
	</g>
</g>
<g id="Line">
	<g>
		
			<line style="fill:none;stroke:#263238;stroke-linecap:round;stroke-linejoin:round;stroke-miterlimit:10;" x1="474.515" y1="468.247" x2="12.149" y2="468.247"/>
		
			<line style="fill:none;stroke:#263238;stroke-linecap:round;stroke-linejoin:round;stroke-miterlimit:10;" x1="494.939" y1="468.247" x2="485.543" y2="468.247"/>
	</g>
</g>
</svg>
